<svg width="370" height="71" viewBox="0 0 370 71" fill="none" xmlns="http://www.w3.org/2000/svg">
<mask id="path-1-inside-1_67_48" fill="white">
<path d="M108.695 0.796875C108.5 0.830559 102.916 0.877724 96.292 0.897942C86.476 0.931633 84.1643 0.95858 83.7998 1.0327C83.453 1.10681 81.9504 1.13377 76.7846 1.16072C73.1748 1.18767 70.1695 1.2281 70.1162 1.25505C70.0184 1.30222 60.567 1.41676 58.0597 1.40328C57.2417 1.39655 56.4948 1.43697 56.0147 1.49761C55.4812 1.57173 54.6455 1.60542 53.1251 1.60542C51.2935 1.60542 50.9023 1.62563 50.3332 1.74018C49.7375 1.86146 49.373 1.87494 46.8656 1.87494C45.3275 1.87494 43.6203 1.90862 43.0869 1.94231C42.5445 1.98274 41.1397 2.03664 39.9661 2.07034C37.9655 2.13097 37.7788 2.14445 36.9875 2.33311C35.9917 2.56894 35.3337 2.6498 33.6622 2.75086C32.8709 2.79803 32.1596 2.88562 31.6616 2.99342C31.2438 3.08775 30.1324 3.28316 29.1899 3.42465C28.2474 3.57288 27.3672 3.7346 27.2338 3.7885C26.6025 4.04454 25.4645 4.72507 25.1711 5.02153C24.8865 5.30453 24.7621 5.36517 24.1663 5.52688C23.5262 5.69532 21.8724 6.47018 21.8724 6.5982C21.8724 6.71275 21.5434 6.78012 20.5654 6.88793C19.9163 6.95531 19.4184 7.04964 19.1428 7.15071C18.4404 7.42022 18.1292 7.46739 16.7955 7.53477C15.2307 7.60888 14.7683 7.69648 13.6569 8.14791C12.9545 8.43764 12.6078 8.63978 11.7809 9.24619C11.2296 9.6572 10.5806 10.1221 10.3405 10.2704C9.94039 10.5331 9.24687 11.2945 9.24687 11.4764C9.24687 11.5236 9.33578 11.6112 9.43359 11.6853C9.54028 11.7527 9.78035 11.9683 9.96706 12.157C10.1538 12.3524 10.4561 12.5747 10.6428 12.6623C10.8295 12.7432 11.2207 12.9992 11.523 13.2215C12.341 13.8414 13.3724 14.5489 13.568 14.6298C13.6569 14.6635 13.9059 14.8117 14.1104 14.9599C14.3238 15.1014 14.546 15.216 14.6172 15.216C14.8128 15.216 15.3818 15.6135 15.3818 15.7483C15.3818 15.8089 15.5063 16.0178 15.6486 16.2064C15.9686 16.6242 16.4132 16.8331 16.9022 16.7859C17.3023 16.7455 17.4713 16.8735 17.3379 17.1295C17.1867 17.4327 17.2312 17.5338 17.6491 17.864C17.8714 18.0391 18.1648 18.3626 18.3159 18.5782C18.476 18.8207 18.7249 19.07 18.9561 19.2048C19.1606 19.3261 19.5696 19.6091 19.8719 19.8314C20.1742 20.0538 20.5209 20.2896 20.6543 20.357C20.7877 20.4244 21.0277 20.6332 21.1878 20.8286C21.3567 21.024 21.6768 21.3003 21.908 21.4418C22.148 21.5833 22.4592 21.8528 22.6015 22.0347C22.7704 22.2369 23.0016 22.412 23.215 22.4929C23.4906 22.6074 23.6151 22.7152 23.864 23.1195C24.0241 23.3823 24.2642 23.7057 24.3975 23.8337C24.6198 24.0628 24.6287 24.1033 24.6287 24.9522C24.6287 25.5519 24.5931 25.8618 24.522 25.9157C24.3708 26.0303 23.8285 26.0168 23.1794 25.8888C22.8238 25.8214 22.4681 25.8012 22.148 25.8282C21.5168 25.8753 20.5121 25.781 19.5429 25.5654C19.125 25.4778 18.2537 25.3228 17.5957 25.2285C16.5288 25.0735 16.1642 25.06 14.137 25.0466C10.2071 25.0331 9.18463 25.2622 8.26884 26.3604L7.92208 26.7715L8.25106 26.8591C8.59781 26.9466 8.98014 27.2229 8.98014 27.3846C8.98014 27.4385 8.90012 27.6474 8.8112 27.8428L8.64227 28.2066L8.84677 28.5368C8.95346 28.712 9.16685 28.9276 9.32689 29.0152C9.6292 29.1836 9.85148 29.4801 10.0826 30.0191C10.1716 30.2145 10.3583 30.4706 10.5005 30.5851L10.7673 30.8007L10.7406 31.5823L10.7139 32.3639L10.4739 32.3841C10.3316 32.3976 10.2249 32.438 10.2249 32.4785C10.2249 32.6604 9.77145 32.9771 8.83788 33.442C7.97543 33.8732 7.78871 34.0012 7.64645 34.237C7.40639 34.6211 7.42417 34.7828 7.71758 35.0389C7.85984 35.1601 8.01988 35.3623 8.07323 35.4836C8.12658 35.5981 8.37553 35.9215 8.63338 36.1978C9.07794 36.6829 9.08683 36.7031 8.98014 36.9389C8.82899 37.2893 8.52668 37.3836 7.3975 37.4308C6.6862 37.4578 6.31277 37.5117 5.91266 37.6329C5.55701 37.7408 5.068 37.8149 4.44561 37.8553C2.943 37.9564 2.50733 38.0574 0.835775 38.6773C0.515691 38.7919 0 39.5263 0 39.8565C0 40.0653 0.0266737 40.1327 0.124477 40.1058C0.328975 40.0451 0.773537 40.51 0.898014 40.921C0.986926 41.2175 1.07584 41.3388 1.29812 41.4668C1.79603 41.7565 1.89383 41.9385 1.9294 42.6055C1.96496 43.158 2.00053 43.2658 2.35617 43.8183C2.84519 44.5865 3.02302 45.0514 3.02302 45.5702C3.02302 46.2911 3.3431 47.5107 3.56538 47.6657C3.66318 47.7263 3.73431 47.8274 3.73431 47.888C3.74321 48.0363 4.82793 48.892 5.11245 48.9728C5.24582 49.0133 5.73484 49.0874 6.19718 49.148C6.91737 49.2356 7.40639 49.2356 9.50472 49.175C18.4849 48.9189 21.7035 48.7842 22.6726 48.6359C23.1261 48.5618 24.9577 48.4742 25.9624 48.4742C26.5314 48.4742 26.7092 48.5012 27.1716 48.6831C27.6339 48.865 27.8295 48.8987 28.5942 48.9324C29.3321 48.9594 29.5455 48.993 29.9012 49.1413C30.2035 49.276 30.3191 49.3636 30.3191 49.4714C30.3191 49.6466 30.1057 49.8083 29.8123 49.8757C29.67 49.9094 29.6078 49.9768 29.6078 50.1048C29.6078 50.3676 29.1276 50.9538 28.7453 51.1694C28.5586 51.2704 28.2385 51.5063 28.0429 51.6949C27.8029 51.9173 27.4205 52.1531 26.9671 52.3553C26.1135 52.7393 25.7223 53.029 25.6067 53.3525C25.4556 53.7837 25.6245 54.0262 26.5136 54.7C26.9582 55.0302 27.3583 55.3064 27.4028 55.3064C27.4561 55.3064 27.7317 55.4816 28.034 55.6972C28.3363 55.9129 28.7364 56.1689 28.9143 56.27C29.101 56.3778 29.3677 56.6338 29.5366 56.8764C29.8212 57.2807 29.8478 57.3009 30.408 57.4491C31.2171 57.6647 31.2971 57.7388 31.0393 58.0083C30.8259 58.224 30.8259 58.224 30.977 58.5878C31.0926 58.8506 31.2349 59.0258 31.4927 59.201C31.6972 59.3424 31.9995 59.5648 32.1773 59.7063C33.6177 60.8652 35.5649 62.26 36.0183 62.4621C36.2406 62.5632 36.4807 62.6912 36.5429 62.7518C36.6141 62.8125 36.943 62.9674 37.2809 63.0955C37.7432 63.2774 37.9211 63.3852 38.01 63.5469C38.0722 63.6682 38.2589 63.8231 38.419 63.8905C38.579 63.9646 38.8546 64.1196 39.0236 64.2342C39.2014 64.3554 39.6015 64.5508 39.9216 64.6721C40.2417 64.7867 40.5618 64.9416 40.6329 65.009C40.8285 65.1775 42.4823 65.8176 42.7401 65.8176C42.8557 65.8176 43.2113 65.7704 43.5225 65.7098C44.056 65.6087 44.1449 65.6087 44.6784 65.7098C45.3541 65.8378 45.7187 65.8445 46.1455 65.7434C46.3322 65.6963 47.7014 65.6424 49.6575 65.6087C51.5513 65.5817 52.9828 65.5278 53.1695 65.4874C53.5785 65.3863 59.1622 65.3796 60.1936 65.4739C60.6115 65.5076 62.5142 65.5548 64.4169 65.575C67.271 65.602 67.9645 65.5952 68.3113 65.5144C68.9514 65.3661 71.9834 65.3594 72.6858 65.5009C72.9792 65.5615 73.6282 65.6222 74.1172 65.6356C75.1664 65.6761 75.6643 65.8108 76.0644 66.1679C76.2156 66.296 76.4912 66.5453 76.6779 66.7137C76.9535 66.963 77.1403 67.0573 77.6026 67.1719C78.2072 67.3269 78.4562 67.4818 79.3986 68.2971C79.8876 68.7216 80.3589 68.9709 80.9546 69.1191C81.2391 69.1865 81.3102 69.2472 81.248 69.3617C81.2302 69.3819 81.3458 69.4493 81.4881 69.5032C81.6392 69.5638 81.8971 69.6986 82.0749 69.7997C82.5106 70.0557 82.7328 70.1163 83.7909 70.2309C84.2799 70.2848 84.9112 70.3724 85.1779 70.433C85.4447 70.4869 86.0048 70.5341 86.4227 70.5341C86.8406 70.5341 87.4985 70.5813 87.8897 70.6352C88.4944 70.716 90.8327 70.7295 103.094 70.7295C112.874 70.7295 117.746 70.7025 118.075 70.6554C118.351 70.6149 120.574 70.5678 123.188 70.5408C127.002 70.5071 127.856 70.4802 128.078 70.3993C128.291 70.3185 129.092 70.2915 132.39 70.2511C135.911 70.2107 139.654 70.15 145.683 70.0288C146.563 70.0153 147.479 69.9681 147.71 69.9277C147.941 69.894 149.088 69.8603 150.262 69.8603C152.076 69.8603 152.493 69.8401 153.125 69.7255C153.809 69.5975 154.183 69.5908 158.753 69.584C161.447 69.584 163.847 69.5571 164.088 69.5234C164.336 69.4897 165.475 69.4291 166.622 69.3887C167.769 69.3482 169.049 69.2808 169.467 69.2404C169.885 69.1933 171.965 69.1393 174.09 69.1191C177.327 69.0787 178.047 69.0518 178.491 68.9574C179.292 68.789 185.035 68.6205 195.474 68.4521C197.812 68.4184 198.648 68.3847 198.852 68.3106C199.039 68.2499 199.75 68.2028 201.119 68.1691C202.222 68.1354 203.76 68.0815 204.543 68.0411C205.325 68.0006 207.21 67.9467 208.721 67.9198C210.295 67.8928 211.531 67.8457 211.611 67.8052C211.691 67.7648 213.078 67.7177 214.99 67.6974C217.55 67.6637 218.36 67.6301 218.813 67.5425C219.133 67.4818 220.093 67.4077 220.965 67.374C221.836 67.3403 222.574 67.2932 222.618 67.273C222.654 67.2595 223.268 67.2258 223.97 67.2056C224.681 67.1854 225.419 67.1382 225.615 67.0978C225.81 67.0641 227.215 67.0304 228.727 67.0304C231.118 67.0304 231.599 67.0102 232.283 66.9024C232.728 66.8283 233.546 66.7407 234.106 66.7002C234.666 66.6598 235.564 66.5992 236.098 66.5587C236.631 66.525 237.458 66.4914 237.92 66.4914C238.391 66.4914 239.094 66.4509 239.485 66.397C240.045 66.3229 241.557 66.3027 246.438 66.296C250.697 66.2825 252.769 66.2623 252.973 66.2084C253.444 66.0871 256.725 66.013 266.603 65.8849C270.516 65.831 272.125 65.7839 272.649 65.7165C273.138 65.6491 274.036 65.6154 275.503 65.6154C277.148 65.6154 277.744 65.5952 278.082 65.5144C278.429 65.4335 279.087 65.4133 281.247 65.4133C282.91 65.4133 284.466 65.3729 285.248 65.3122C285.942 65.2651 287.604 65.1842 288.92 65.1438C290.245 65.1033 291.703 65.0427 292.166 65.009C292.628 64.9686 295.509 64.9282 298.567 64.9147C303.813 64.8877 304.169 64.8743 304.969 64.7395C305.671 64.625 306.516 64.5778 310.081 64.47C312.429 64.3959 314.554 64.3083 314.794 64.2746C315.043 64.2409 317.105 64.2139 319.391 64.2072C322.734 64.1937 323.632 64.1735 323.97 64.0994C324.21 64.0455 324.734 63.9983 325.143 63.9983C325.837 63.9983 327.073 63.904 328.646 63.7288C328.984 63.6884 329.455 63.5806 329.695 63.493C329.936 63.3987 330.362 63.2572 330.638 63.183C330.922 63.1022 331.438 62.9203 331.776 62.7788C332.123 62.6373 332.701 62.4351 333.074 62.3273C333.812 62.1117 334.772 61.6535 334.968 61.4177C335.039 61.3369 335.119 61.1482 335.155 61C335.181 60.8517 335.288 60.5014 335.395 60.2184C335.644 59.5311 335.581 59.2751 335.092 59.0123C334.888 58.8977 334.675 58.8102 334.603 58.8102C334.532 58.8102 334.186 58.5743 333.821 58.2846C333.465 58.0016 332.967 57.5973 332.71 57.3952C332.221 56.9977 331.554 56.0611 331.554 55.7579C331.554 55.6433 331.616 55.5692 331.732 55.5423C331.829 55.5221 332.55 55.5355 333.341 55.576C334.47 55.6366 334.897 55.6366 335.297 55.576C336.053 55.4547 338.818 55.5221 339.467 55.677C339.903 55.7848 340.196 55.7916 342.161 55.7512C343.37 55.7242 344.686 55.6636 345.068 55.6097C345.451 55.5558 346.367 55.4816 347.087 55.4412C349.363 55.3064 350.394 55.0235 350.705 54.4305C350.892 54.0667 350.91 51.9712 350.723 51.3648C350.652 51.1424 350.572 50.7449 350.536 50.4889C350.439 49.6534 350.128 48.9257 349.647 48.3934C349.47 48.198 349.425 48.0632 349.425 47.7331C349.425 47.3557 349.372 47.2412 348.883 46.5068C348.58 46.0688 348.127 45.3883 347.869 44.9975C347.496 44.4315 347.327 44.2428 347.016 44.0744C346.802 43.9531 346.455 43.7442 346.242 43.6162C346.029 43.4882 345.691 43.3534 345.486 43.313C345.282 43.2726 344.811 43.1648 344.446 43.0704C344.081 42.9694 343.521 42.8279 343.201 42.747C342.73 42.6257 342.526 42.5179 342.117 42.1945C341.592 41.7902 341.485 41.5814 341.734 41.4264C341.859 41.3455 341.859 41.3253 341.734 41.2242C341.565 41.0828 341.565 40.8604 341.725 40.7593C341.796 40.7189 342.259 40.6515 342.757 40.6246C343.53 40.5707 343.753 40.5235 344.339 40.3079C345.095 40.0249 344.659 40.0653 348.981 39.8834C349.719 39.8565 350.519 39.7823 350.848 39.7082C351.319 39.6139 351.63 39.5937 352.581 39.6274C353.444 39.6611 353.817 39.6476 354.049 39.5802C354.217 39.5263 354.689 39.405 355.08 39.3107C355.48 39.2096 355.978 39.0344 356.191 38.9199C356.396 38.8053 356.894 38.6167 357.285 38.4954C357.685 38.3741 358.37 38.1518 358.805 38.0035C359.597 37.7408 360.095 37.6532 361.642 37.5184C362.611 37.4308 362.78 37.3432 363.384 36.656L363.847 36.1371L363.793 35.0658C363.767 34.3718 363.784 33.9473 363.847 33.8597C363.909 33.7654 363.909 33.6509 363.829 33.4689C363.678 33.1253 363.793 32.7884 364.096 32.721C364.22 32.7008 364.7 32.6334 365.163 32.5795C365.625 32.5189 366.292 32.4111 366.63 32.337C366.976 32.2561 367.474 32.1618 367.741 32.1281C368.088 32.0809 368.452 31.9529 368.941 31.7036C369.928 31.2185 370.008 31.077 369.999 29.9652C369.982 28.9208 369.795 28.3616 369.11 27.3509C368.568 26.5356 368.363 25.8618 368.363 24.8512C368.363 24.5277 368.31 24.1235 368.239 23.955C368.088 23.5642 367.216 22.4525 366.896 22.2234C366.763 22.1291 366.496 21.8932 366.301 21.6911C365.865 21.2531 365.367 21.0645 364.229 20.9095C363.793 20.8489 363.126 20.741 362.762 20.6669C362.131 20.5456 361.739 20.5389 355.071 20.5389C350.572 20.5389 347.922 20.512 347.691 20.4715C347.496 20.4311 346.242 20.3705 344.908 20.3368C343.575 20.3031 342.445 20.2559 342.41 20.2357C342.365 20.2155 341.672 20.1751 340.872 20.1414C339.574 20.0875 339.307 20.0538 338.267 19.8112C337.635 19.6697 336.915 19.5282 336.684 19.5013C336.435 19.4743 336.195 19.4002 336.106 19.3193C336.026 19.252 335.875 19.1913 335.777 19.1913C335.377 19.1913 335.244 18.8544 335.537 18.5849C335.653 18.4704 335.848 18.4165 336.222 18.376C336.906 18.3087 337.2 18.0863 337.822 17.1632C338.347 16.3884 338.427 16.0515 338.187 15.7011C338 15.4316 336.142 14.1312 335.75 14.0031C335.573 13.9425 335.101 13.6528 334.71 13.3698C334.043 12.8779 333.625 12.6354 332.985 12.3726C332.799 12.2985 332.638 12.13 332.461 11.8335C332.283 11.5303 332.078 11.3349 331.776 11.1395C331.536 10.998 331.243 10.8026 331.118 10.7151C330.994 10.6275 330.691 10.4792 330.46 10.3916C330.229 10.2973 329.891 10.1221 329.704 10.0008C329.215 9.66394 329.055 9.62352 328.291 9.62352C327.908 9.62352 327.357 9.56961 327.064 9.51571C326.717 9.44159 325.917 9.38769 324.796 9.36074C323.32 9.32031 322.991 9.28662 322.6 9.16534C322.236 9.05079 321.871 9.01037 321 8.98341C320.369 8.9632 319.693 8.92951 319.488 8.9093C319.044 8.86887 317.266 8.20856 317.008 7.99968C316.919 7.91883 316.616 7.7706 316.35 7.66953C316.083 7.56846 315.781 7.41349 315.683 7.33263C315.585 7.25178 315.283 7.09681 315.007 6.989C314.625 6.8475 314.011 6.42976 312.473 5.27084C310.677 3.91652 309.726 3.28989 309.468 3.28989C309.423 3.28989 309.219 3.18209 309.006 3.05407C308.134 2.5083 307.218 2.23204 304.916 1.80756L302.755 1.40328L300.017 1.36285C298.514 1.34264 296.665 1.282 295.918 1.2281C295.109 1.16746 293.855 1.13377 292.806 1.1405C291.241 1.15398 291.01 1.14724 290.654 1.02596C290.263 0.897942 289.694 0.897942 256.867 0.897942C225.384 0.897942 223.445 0.904678 222.823 1.01248C222.218 1.12703 221.383 1.13377 212.198 1.13377C203.689 1.13377 202.16 1.12029 201.742 1.0327C201.084 0.897942 192.655 0.884468 192.255 1.01248C192.077 1.07313 190.752 1.11356 187.338 1.14724C184.769 1.16746 181.772 1.22136 180.67 1.25505C178.127 1.34264 163.59 1.34264 159.775 1.26179C154.503 1.1405 153.249 1.09334 152.974 1.00574C152.769 0.93837 150.333 0.918152 142.011 0.891205C135.582 0.877724 131.163 0.837296 130.941 0.796875C130.719 0.756447 127.936 0.729492 124.077 0.729492C118.849 0.729492 117.444 0.74971 116.866 0.823822C116.279 0.904678 115.844 0.911415 114.466 0.850777C112.181 0.756447 109.131 0.729492 108.695 0.796875Z"/>
</mask>
<path d="M108.695 0.796875C108.5 0.830559 102.916 0.877724 96.292 0.897942C86.476 0.931633 84.1643 0.95858 83.7998 1.0327C83.453 1.10681 81.9504 1.13377 76.7846 1.16072C73.1748 1.18767 70.1695 1.2281 70.1162 1.25505C70.0184 1.30222 60.567 1.41676 58.0597 1.40328C57.2417 1.39655 56.4948 1.43697 56.0147 1.49761C55.4812 1.57173 54.6455 1.60542 53.1251 1.60542C51.2935 1.60542 50.9023 1.62563 50.3332 1.74018C49.7375 1.86146 49.373 1.87494 46.8656 1.87494C45.3275 1.87494 43.6203 1.90862 43.0869 1.94231C42.5445 1.98274 41.1397 2.03664 39.9661 2.07034C37.9655 2.13097 37.7788 2.14445 36.9875 2.33311C35.9917 2.56894 35.3337 2.6498 33.6622 2.75086C32.8709 2.79803 32.1596 2.88562 31.6616 2.99342C31.2438 3.08775 30.1324 3.28316 29.1899 3.42465C28.2474 3.57288 27.3672 3.7346 27.2338 3.7885C26.6025 4.04454 25.4645 4.72507 25.1711 5.02153C24.8865 5.30453 24.7621 5.36517 24.1663 5.52688C23.5262 5.69532 21.8724 6.47018 21.8724 6.5982C21.8724 6.71275 21.5434 6.78012 20.5654 6.88793C19.9163 6.95531 19.4184 7.04964 19.1428 7.15071C18.4404 7.42022 18.1292 7.46739 16.7955 7.53477C15.2307 7.60888 14.7683 7.69648 13.6569 8.14791C12.9545 8.43764 12.6078 8.63978 11.7809 9.24619C11.2296 9.6572 10.5806 10.1221 10.3405 10.2704C9.94039 10.5331 9.24687 11.2945 9.24687 11.4764C9.24687 11.5236 9.33578 11.6112 9.43359 11.6853C9.54028 11.7527 9.78035 11.9683 9.96706 12.157C10.1538 12.3524 10.4561 12.5747 10.6428 12.6623C10.8295 12.7432 11.2207 12.9992 11.523 13.2215C12.341 13.8414 13.3724 14.5489 13.568 14.6298C13.6569 14.6635 13.9059 14.8117 14.1104 14.9599C14.3238 15.1014 14.546 15.216 14.6172 15.216C14.8128 15.216 15.3818 15.6135 15.3818 15.7483C15.3818 15.8089 15.5063 16.0178 15.6486 16.2064C15.9686 16.6242 16.4132 16.8331 16.9022 16.7859C17.3023 16.7455 17.4713 16.8735 17.3379 17.1295C17.1867 17.4327 17.2312 17.5338 17.6491 17.864C17.8714 18.0391 18.1648 18.3626 18.3159 18.5782C18.476 18.8207 18.7249 19.07 18.9561 19.2048C19.1606 19.3261 19.5696 19.6091 19.8719 19.8314C20.1742 20.0538 20.5209 20.2896 20.6543 20.357C20.7877 20.4244 21.0277 20.6332 21.1878 20.8286C21.3567 21.024 21.6768 21.3003 21.908 21.4418C22.148 21.5833 22.4592 21.8528 22.6015 22.0347C22.7704 22.2369 23.0016 22.412 23.215 22.4929C23.4906 22.6074 23.6151 22.7152 23.864 23.1195C24.0241 23.3823 24.2642 23.7057 24.3975 23.8337C24.6198 24.0628 24.6287 24.1033 24.6287 24.9522C24.6287 25.5519 24.5931 25.8618 24.522 25.9157C24.3708 26.0303 23.8285 26.0168 23.1794 25.8888C22.8238 25.8214 22.4681 25.8012 22.148 25.8282C21.5168 25.8753 20.5121 25.781 19.5429 25.5654C19.125 25.4778 18.2537 25.3228 17.5957 25.2285C16.5288 25.0735 16.1642 25.06 14.137 25.0466C10.2071 25.0331 9.18463 25.2622 8.26884 26.3604L7.92208 26.7715L8.25106 26.8591C8.59781 26.9466 8.98014 27.2229 8.98014 27.3846C8.98014 27.4385 8.90012 27.6474 8.8112 27.8428L8.64227 28.2066L8.84677 28.5368C8.95346 28.712 9.16685 28.9276 9.32689 29.0152C9.6292 29.1836 9.85148 29.4801 10.0826 30.0191C10.1716 30.2145 10.3583 30.4706 10.5005 30.5851L10.7673 30.8007L10.7406 31.5823L10.7139 32.3639L10.4739 32.3841C10.3316 32.3976 10.2249 32.438 10.2249 32.4785C10.2249 32.6604 9.77145 32.9771 8.83788 33.442C7.97543 33.8732 7.78871 34.0012 7.64645 34.237C7.40639 34.6211 7.42417 34.7828 7.71758 35.0389C7.85984 35.1601 8.01988 35.3623 8.07323 35.4836C8.12658 35.5981 8.37553 35.9215 8.63338 36.1978C9.07794 36.6829 9.08683 36.7031 8.98014 36.9389C8.82899 37.2893 8.52668 37.3836 7.3975 37.4308C6.6862 37.4578 6.31277 37.5117 5.91266 37.6329C5.55701 37.7408 5.068 37.8149 4.44561 37.8553C2.943 37.9564 2.50733 38.0574 0.835775 38.6773C0.515691 38.7919 0 39.5263 0 39.8565C0 40.0653 0.0266737 40.1327 0.124477 40.1058C0.328975 40.0451 0.773537 40.51 0.898014 40.921C0.986926 41.2175 1.07584 41.3388 1.29812 41.4668C1.79603 41.7565 1.89383 41.9385 1.9294 42.6055C1.96496 43.158 2.00053 43.2658 2.35617 43.8183C2.84519 44.5865 3.02302 45.0514 3.02302 45.5702C3.02302 46.2911 3.3431 47.5107 3.56538 47.6657C3.66318 47.7263 3.73431 47.8274 3.73431 47.888C3.74321 48.0363 4.82793 48.892 5.11245 48.9728C5.24582 49.0133 5.73484 49.0874 6.19718 49.148C6.91737 49.2356 7.40639 49.2356 9.50472 49.175C18.4849 48.9189 21.7035 48.7842 22.6726 48.6359C23.1261 48.5618 24.9577 48.4742 25.9624 48.4742C26.5314 48.4742 26.7092 48.5012 27.1716 48.6831C27.6339 48.865 27.8295 48.8987 28.5942 48.9324C29.3321 48.9594 29.5455 48.993 29.9012 49.1413C30.2035 49.276 30.3191 49.3636 30.3191 49.4714C30.3191 49.6466 30.1057 49.8083 29.8123 49.8757C29.67 49.9094 29.6078 49.9768 29.6078 50.1048C29.6078 50.3676 29.1276 50.9538 28.7453 51.1694C28.5586 51.2704 28.2385 51.5063 28.0429 51.6949C27.8029 51.9173 27.4205 52.1531 26.9671 52.3553C26.1135 52.7393 25.7223 53.029 25.6067 53.3525C25.4556 53.7837 25.6245 54.0262 26.5136 54.7C26.9582 55.0302 27.3583 55.3064 27.4028 55.3064C27.4561 55.3064 27.7317 55.4816 28.034 55.6972C28.3363 55.9129 28.7364 56.1689 28.9143 56.27C29.101 56.3778 29.3677 56.6338 29.5366 56.8764C29.8212 57.2807 29.8478 57.3009 30.408 57.4491C31.2171 57.6647 31.2971 57.7388 31.0393 58.0083C30.8259 58.224 30.8259 58.224 30.977 58.5878C31.0926 58.8506 31.2349 59.0258 31.4927 59.201C31.6972 59.3424 31.9995 59.5648 32.1773 59.7063C33.6177 60.8652 35.5649 62.26 36.0183 62.4621C36.2406 62.5632 36.4807 62.6912 36.5429 62.7518C36.6141 62.8125 36.943 62.9674 37.2809 63.0955C37.7432 63.2774 37.9211 63.3852 38.01 63.5469C38.0722 63.6682 38.2589 63.8231 38.419 63.8905C38.579 63.9646 38.8546 64.1196 39.0236 64.2342C39.2014 64.3554 39.6015 64.5508 39.9216 64.6721C40.2417 64.7867 40.5618 64.9416 40.6329 65.009C40.8285 65.1775 42.4823 65.8176 42.7401 65.8176C42.8557 65.8176 43.2113 65.7704 43.5225 65.7098C44.056 65.6087 44.1449 65.6087 44.6784 65.7098C45.3541 65.8378 45.7187 65.8445 46.1455 65.7434C46.3322 65.6963 47.7014 65.6424 49.6575 65.6087C51.5513 65.5817 52.9828 65.5278 53.1695 65.4874C53.5785 65.3863 59.1622 65.3796 60.1936 65.4739C60.6115 65.5076 62.5142 65.5548 64.4169 65.575C67.271 65.602 67.9645 65.5952 68.3113 65.5144C68.9514 65.3661 71.9834 65.3594 72.6858 65.5009C72.9792 65.5615 73.6282 65.6222 74.1172 65.6356C75.1664 65.6761 75.6643 65.8108 76.0644 66.1679C76.2156 66.296 76.4912 66.5453 76.6779 66.7137C76.9535 66.963 77.1403 67.0573 77.6026 67.1719C78.2072 67.3269 78.4562 67.4818 79.3986 68.2971C79.8876 68.7216 80.3589 68.9709 80.9546 69.1191C81.2391 69.1865 81.3102 69.2472 81.248 69.3617C81.2302 69.3819 81.3458 69.4493 81.4881 69.5032C81.6392 69.5638 81.8971 69.6986 82.0749 69.7997C82.5106 70.0557 82.7328 70.1163 83.7909 70.2309C84.2799 70.2848 84.9112 70.3724 85.1779 70.433C85.4447 70.4869 86.0048 70.5341 86.4227 70.5341C86.8406 70.5341 87.4985 70.5813 87.8897 70.6352C88.4944 70.716 90.8327 70.7295 103.094 70.7295C112.874 70.7295 117.746 70.7025 118.075 70.6554C118.351 70.6149 120.574 70.5678 123.188 70.5408C127.002 70.5071 127.856 70.4802 128.078 70.3993C128.291 70.3185 129.092 70.2915 132.39 70.2511C135.911 70.2107 139.654 70.15 145.683 70.0288C146.563 70.0153 147.479 69.9681 147.71 69.9277C147.941 69.894 149.088 69.8603 150.262 69.8603C152.076 69.8603 152.493 69.8401 153.125 69.7255C153.809 69.5975 154.183 69.5908 158.753 69.584C161.447 69.584 163.847 69.5571 164.088 69.5234C164.336 69.4897 165.475 69.4291 166.622 69.3887C167.769 69.3482 169.049 69.2808 169.467 69.2404C169.885 69.1933 171.965 69.1393 174.09 69.1191C177.327 69.0787 178.047 69.0518 178.491 68.9574C179.292 68.789 185.035 68.6205 195.474 68.4521C197.812 68.4184 198.648 68.3847 198.852 68.3106C199.039 68.2499 199.75 68.2028 201.119 68.1691C202.222 68.1354 203.76 68.0815 204.543 68.0411C205.325 68.0006 207.21 67.9467 208.721 67.9198C210.295 67.8928 211.531 67.8457 211.611 67.8052C211.691 67.7648 213.078 67.7177 214.99 67.6974C217.55 67.6637 218.36 67.6301 218.813 67.5425C219.133 67.4818 220.093 67.4077 220.965 67.374C221.836 67.3403 222.574 67.2932 222.618 67.273C222.654 67.2595 223.268 67.2258 223.97 67.2056C224.681 67.1854 225.419 67.1382 225.615 67.0978C225.81 67.0641 227.215 67.0304 228.727 67.0304C231.118 67.0304 231.599 67.0102 232.283 66.9024C232.728 66.8283 233.546 66.7407 234.106 66.7002C234.666 66.6598 235.564 66.5992 236.098 66.5587C236.631 66.525 237.458 66.4914 237.92 66.4914C238.391 66.4914 239.094 66.4509 239.485 66.397C240.045 66.3229 241.557 66.3027 246.438 66.296C250.697 66.2825 252.769 66.2623 252.973 66.2084C253.444 66.0871 256.725 66.013 266.603 65.8849C270.516 65.831 272.125 65.7839 272.649 65.7165C273.138 65.6491 274.036 65.6154 275.503 65.6154C277.148 65.6154 277.744 65.5952 278.082 65.5144C278.429 65.4335 279.087 65.4133 281.247 65.4133C282.91 65.4133 284.466 65.3729 285.248 65.3122C285.942 65.2651 287.604 65.1842 288.92 65.1438C290.245 65.1033 291.703 65.0427 292.166 65.009C292.628 64.9686 295.509 64.9282 298.567 64.9147C303.813 64.8877 304.169 64.8743 304.969 64.7395C305.671 64.625 306.516 64.5778 310.081 64.47C312.429 64.3959 314.554 64.3083 314.794 64.2746C315.043 64.2409 317.105 64.2139 319.391 64.2072C322.734 64.1937 323.632 64.1735 323.97 64.0994C324.21 64.0455 324.734 63.9983 325.143 63.9983C325.837 63.9983 327.073 63.904 328.646 63.7288C328.984 63.6884 329.455 63.5806 329.695 63.493C329.936 63.3987 330.362 63.2572 330.638 63.183C330.922 63.1022 331.438 62.9203 331.776 62.7788C332.123 62.6373 332.701 62.4351 333.074 62.3273C333.812 62.1117 334.772 61.6535 334.968 61.4177C335.039 61.3369 335.119 61.1482 335.155 61C335.181 60.8517 335.288 60.5014 335.395 60.2184C335.644 59.5311 335.581 59.2751 335.092 59.0123C334.888 58.8977 334.675 58.8102 334.603 58.8102C334.532 58.8102 334.186 58.5743 333.821 58.2846C333.465 58.0016 332.967 57.5973 332.71 57.3952C332.221 56.9977 331.554 56.0611 331.554 55.7579C331.554 55.6433 331.616 55.5692 331.732 55.5423C331.829 55.5221 332.55 55.5355 333.341 55.576C334.47 55.6366 334.897 55.6366 335.297 55.576C336.053 55.4547 338.818 55.5221 339.467 55.677C339.903 55.7848 340.196 55.7916 342.161 55.7512C343.37 55.7242 344.686 55.6636 345.068 55.6097C345.451 55.5558 346.367 55.4816 347.087 55.4412C349.363 55.3064 350.394 55.0235 350.705 54.4305C350.892 54.0667 350.91 51.9712 350.723 51.3648C350.652 51.1424 350.572 50.7449 350.536 50.4889C350.439 49.6534 350.128 48.9257 349.647 48.3934C349.47 48.198 349.425 48.0632 349.425 47.7331C349.425 47.3557 349.372 47.2412 348.883 46.5068C348.58 46.0688 348.127 45.3883 347.869 44.9975C347.496 44.4315 347.327 44.2428 347.016 44.0744C346.802 43.9531 346.455 43.7442 346.242 43.6162C346.029 43.4882 345.691 43.3534 345.486 43.313C345.282 43.2726 344.811 43.1648 344.446 43.0704C344.081 42.9694 343.521 42.8279 343.201 42.747C342.73 42.6257 342.526 42.5179 342.117 42.1945C341.592 41.7902 341.485 41.5814 341.734 41.4264C341.859 41.3455 341.859 41.3253 341.734 41.2242C341.565 41.0828 341.565 40.8604 341.725 40.7593C341.796 40.7189 342.259 40.6515 342.757 40.6246C343.53 40.5707 343.753 40.5235 344.339 40.3079C345.095 40.0249 344.659 40.0653 348.981 39.8834C349.719 39.8565 350.519 39.7823 350.848 39.7082C351.319 39.6139 351.63 39.5937 352.581 39.6274C353.444 39.6611 353.817 39.6476 354.049 39.5802C354.217 39.5263 354.689 39.405 355.08 39.3107C355.48 39.2096 355.978 39.0344 356.191 38.9199C356.396 38.8053 356.894 38.6167 357.285 38.4954C357.685 38.3741 358.37 38.1518 358.805 38.0035C359.597 37.7408 360.095 37.6532 361.642 37.5184C362.611 37.4308 362.78 37.3432 363.384 36.656L363.847 36.1371L363.793 35.0658C363.767 34.3718 363.784 33.9473 363.847 33.8597C363.909 33.7654 363.909 33.6509 363.829 33.4689C363.678 33.1253 363.793 32.7884 364.096 32.721C364.22 32.7008 364.7 32.6334 365.163 32.5795C365.625 32.5189 366.292 32.4111 366.63 32.337C366.976 32.2561 367.474 32.1618 367.741 32.1281C368.088 32.0809 368.452 31.9529 368.941 31.7036C369.928 31.2185 370.008 31.077 369.999 29.9652C369.982 28.9208 369.795 28.3616 369.11 27.3509C368.568 26.5356 368.363 25.8618 368.363 24.8512C368.363 24.5277 368.31 24.1235 368.239 23.955C368.088 23.5642 367.216 22.4525 366.896 22.2234C366.763 22.1291 366.496 21.8932 366.301 21.6911C365.865 21.2531 365.367 21.0645 364.229 20.9095C363.793 20.8489 363.126 20.741 362.762 20.6669C362.131 20.5456 361.739 20.5389 355.071 20.5389C350.572 20.5389 347.922 20.512 347.691 20.4715C347.496 20.4311 346.242 20.3705 344.908 20.3368C343.575 20.3031 342.445 20.2559 342.41 20.2357C342.365 20.2155 341.672 20.1751 340.872 20.1414C339.574 20.0875 339.307 20.0538 338.267 19.8112C337.635 19.6697 336.915 19.5282 336.684 19.5013C336.435 19.4743 336.195 19.4002 336.106 19.3193C336.026 19.252 335.875 19.1913 335.777 19.1913C335.377 19.1913 335.244 18.8544 335.537 18.5849C335.653 18.4704 335.848 18.4165 336.222 18.376C336.906 18.3087 337.2 18.0863 337.822 17.1632C338.347 16.3884 338.427 16.0515 338.187 15.7011C338 15.4316 336.142 14.1312 335.75 14.0031C335.573 13.9425 335.101 13.6528 334.71 13.3698C334.043 12.8779 333.625 12.6354 332.985 12.3726C332.799 12.2985 332.638 12.13 332.461 11.8335C332.283 11.5303 332.078 11.3349 331.776 11.1395C331.536 10.998 331.243 10.8026 331.118 10.7151C330.994 10.6275 330.691 10.4792 330.46 10.3916C330.229 10.2973 329.891 10.1221 329.704 10.0008C329.215 9.66394 329.055 9.62352 328.291 9.62352C327.908 9.62352 327.357 9.56961 327.064 9.51571C326.717 9.44159 325.917 9.38769 324.796 9.36074C323.32 9.32031 322.991 9.28662 322.6 9.16534C322.236 9.05079 321.871 9.01037 321 8.98341C320.369 8.9632 319.693 8.92951 319.488 8.9093C319.044 8.86887 317.266 8.20856 317.008 7.99968C316.919 7.91883 316.616 7.7706 316.35 7.66953C316.083 7.56846 315.781 7.41349 315.683 7.33263C315.585 7.25178 315.283 7.09681 315.007 6.989C314.625 6.8475 314.011 6.42976 312.473 5.27084C310.677 3.91652 309.726 3.28989 309.468 3.28989C309.423 3.28989 309.219 3.18209 309.006 3.05407C308.134 2.5083 307.218 2.23204 304.916 1.80756L302.755 1.40328L300.017 1.36285C298.514 1.34264 296.665 1.282 295.918 1.2281C295.109 1.16746 293.855 1.13377 292.806 1.1405C291.241 1.15398 291.01 1.14724 290.654 1.02596C290.263 0.897942 289.694 0.897942 256.867 0.897942C225.384 0.897942 223.445 0.904678 222.823 1.01248C222.218 1.12703 221.383 1.13377 212.198 1.13377C203.689 1.13377 202.16 1.12029 201.742 1.0327C201.084 0.897942 192.655 0.884468 192.255 1.01248C192.077 1.07313 190.752 1.11356 187.338 1.14724C184.769 1.16746 181.772 1.22136 180.67 1.25505C178.127 1.34264 163.59 1.34264 159.775 1.26179C154.503 1.1405 153.249 1.09334 152.974 1.00574C152.769 0.93837 150.333 0.918152 142.011 0.891205C135.582 0.877724 131.163 0.837296 130.941 0.796875C130.719 0.756447 127.936 0.729492 124.077 0.729492C118.849 0.729492 117.444 0.74971 116.866 0.823822C116.279 0.904678 115.844 0.911415 114.466 0.850777C112.181 0.756447 109.131 0.729492 108.695 0.796875Z" fill="black" stroke="black" stroke-width="2" mask="url(#path-1-inside-1_67_48)"/>
</svg>
