<svg width="18" height="14" viewBox="0 0 18 14" fill="none" xmlns="http://www.w3.org/2000/svg">
<mask id="mask0_118_127" style="mask-type:luminance" maskUnits="userSpaceOnUse" x="0" y="0" width="18" height="14">
<path d="M18 0.0250244H0V13.975H18V0.0250244Z" fill="white"/>
</mask>
<g mask="url(#mask0_118_127)">
<path d="M15.2378 1.26728C14.0905 0.740632 12.8602 0.352619 11.5739 0.130388C11.5505 0.126099 11.5271 0.136817 11.515 0.158255C11.3568 0.439794 11.1815 0.807085 11.0588 1.09577C9.6753 0.888553 8.29889 0.888553 6.94374 1.09577C6.82099 0.800668 6.63936 0.439794 6.48043 0.158255C6.46836 0.137532 6.44496 0.126814 6.42154 0.130388C5.13593 0.351909 3.90567 0.739922 2.7577 1.26728C2.74776 1.27157 2.73924 1.27872 2.73359 1.288C0.400044 4.77586 -0.239213 8.17799 0.0743851 11.5379C0.075804 11.5544 0.0850274 11.5701 0.0977985 11.5801C1.63741 12.7113 3.12878 13.398 4.59246 13.8532C4.61588 13.8603 4.6407 13.8517 4.65561 13.8324C5.00184 13.3594 5.31048 12.8606 5.57511 12.3361C5.59072 12.3054 5.57582 12.2689 5.5439 12.2568C5.05435 12.071 4.5882 11.8445 4.1398 11.5872C4.10433 11.5665 4.10149 11.5158 4.13412 11.4915C4.22848 11.4207 4.32286 11.3471 4.41297 11.2728C4.42927 11.2592 4.45198 11.2564 4.47115 11.2649C7.41696 12.6105 10.6062 12.6105 13.5172 11.2649C13.5364 11.2557 13.5591 11.2585 13.5761 11.2721C13.6662 11.3464 13.7606 11.4207 13.8557 11.4915C13.8883 11.5158 13.8862 11.5665 13.8507 11.5872C13.4023 11.8495 12.9361 12.071 12.4459 12.2561C12.414 12.2682 12.3998 12.3054 12.4154 12.3361C12.6857 12.8599 12.9943 13.3587 13.3342 13.8317C13.3484 13.8517 13.3739 13.8603 13.3973 13.8532C14.8681 13.398 16.3595 12.7113 17.8991 11.5801C17.9126 11.5701 17.9211 11.5551 17.9225 11.5386C18.2978 7.65418 17.2939 4.27995 15.2612 1.28871C15.2562 1.27872 15.2477 1.27157 15.2378 1.26728ZM6.01502 9.49207C5.12812 9.49207 4.39735 8.67747 4.39735 7.67705C4.39735 6.67664 5.11395 5.86203 6.01502 5.86203C6.92315 5.86203 7.64686 6.68379 7.63266 7.67705C7.63266 8.67747 6.91606 9.49207 6.01502 9.49207ZM11.9961 9.49207C11.1092 9.49207 10.3784 8.67747 10.3784 7.67705C10.3784 6.67664 11.095 5.86203 11.9961 5.86203C12.9042 5.86203 13.6279 6.68379 13.6137 7.67705C13.6137 8.67747 12.9042 9.49207 11.9961 9.49207Z" fill="white"/>
</g>
</svg>
