<svg width="18" height="18" viewBox="0 0 18 18" fill="none" xmlns="http://www.w3.org/2000/svg">
<g clip-path="url(#clip0_118_123)">
<path d="M9.00007 0.221252C4.03012 0.221252 0 4.25105 0 9.22226C0 13.1991 2.5788 16.5731 6.1548 17.7633C6.6046 17.8466 6.76973 17.568 6.76973 17.3303C6.76973 17.1156 6.76138 16.4066 6.75751 15.6545C4.25368 16.199 3.72534 14.5925 3.72534 14.5925C3.31593 13.5521 2.72604 13.2755 2.72604 13.2755C1.90947 12.7168 2.7876 12.7283 2.7876 12.7283C3.69136 12.7918 4.16724 13.6558 4.16724 13.6558C4.96995 15.0319 6.27269 14.6341 6.78627 14.4041C6.86705 13.8223 7.10029 13.4252 7.35768 13.2005C5.35864 12.9729 3.25721 12.2011 3.25721 8.75214C3.25721 7.76944 3.60879 6.96649 4.18453 6.33615C4.09108 6.10944 3.78302 5.19395 4.27171 3.95413C4.27171 3.95413 5.02748 3.71222 6.74737 4.87677C7.46529 4.67734 8.23521 4.57732 9.00007 4.57389C9.76493 4.57732 10.5355 4.67734 11.2547 4.87677C12.9725 3.71222 13.7272 3.95413 13.7272 3.95413C14.2171 5.19395 13.9089 6.10944 13.8155 6.33615C14.3925 6.96649 14.7417 7.76944 14.7417 8.75214C14.7417 12.2093 12.6363 12.9705 10.6322 13.1933C10.955 13.4726 11.2426 14.0204 11.2426 14.8602C11.2426 16.0645 11.2322 17.0338 11.2322 17.3303C11.2322 17.5698 11.3942 17.8505 11.8504 17.7621C15.4245 16.5706 18 13.1978 18 9.22226C18 4.25105 13.9705 0.221252 9.00007 0.221252ZM3.37082 13.0434C3.351 13.0881 3.28065 13.1015 3.21657 13.0708C3.15129 13.0414 3.11463 12.9805 3.13579 12.9356C3.15516 12.8896 3.22566 12.8767 3.29079 12.9076C3.35622 12.9369 3.39347 12.9985 3.37082 13.0434ZM3.81352 13.4384C3.7706 13.4782 3.68669 13.4597 3.62976 13.3968C3.57089 13.3341 3.55986 13.2502 3.60338 13.2098C3.64765 13.17 3.72902 13.1886 3.78804 13.2514C3.84691 13.3149 3.85838 13.3982 3.81352 13.4384ZM4.11724 13.9439C4.06209 13.9822 3.97192 13.9463 3.91618 13.8662C3.86104 13.7862 3.86104 13.6902 3.91738 13.6518C3.97327 13.6133 4.06209 13.6479 4.11858 13.7273C4.17357 13.8087 4.17357 13.9047 4.11724 13.9439ZM4.63088 14.5293C4.58155 14.5837 4.47647 14.5691 4.39957 14.4949C4.32088 14.4223 4.29897 14.3193 4.34845 14.2649C4.39838 14.2103 4.50405 14.2257 4.58155 14.2993C4.65964 14.3717 4.68349 14.4755 4.63088 14.5293ZM5.29471 14.7269C5.27295 14.7974 5.17175 14.8295 5.06981 14.7995C4.96802 14.7687 4.9014 14.6861 4.92197 14.6148C4.94313 14.5439 5.04477 14.5105 5.14746 14.5425C5.2491 14.5732 5.31587 14.6552 5.29471 14.7269ZM6.05018 14.8107C6.05271 14.885 5.96627 14.9465 5.85926 14.9479C5.75165 14.9503 5.66462 14.8902 5.66342 14.8172C5.66342 14.7422 5.74793 14.6812 5.85553 14.6794C5.96254 14.6773 6.05018 14.737 6.05018 14.8107ZM6.79234 14.7823C6.80516 14.8547 6.73079 14.9291 6.62452 14.9489C6.52005 14.968 6.42332 14.9233 6.41006 14.8515C6.39709 14.7772 6.4728 14.7029 6.57713 14.6836C6.68354 14.6651 6.77878 14.7087 6.79234 14.7823Z" fill="white"/>
</g>
<defs>
<clipPath id="clip0_118_123">
<rect width="18" height="17.5575" fill="white" transform="translate(0 0.221252)"/>
</clipPath>
</defs>
</svg>
