<svg width="180" height="44" viewBox="0 0 180 44" fill="none" xmlns="http://www.w3.org/2000/svg">
<rect x="0.5" y="0.5" width="179" height="43" rx="9.5" fill="white" stroke="black"/>
<g clip-path="url(#clip0_163_64)">
<path d="M16.2705 13.592C14.472 14.2159 12.921 15.4001 11.8453 16.9707C10.7696 18.5412 10.2258 20.4154 10.294 22.3178C10.3621 24.2202 11.0385 26.0506 12.2238 27.5402C13.4091 29.0297 15.0409 30.0999 16.8794 30.5936C18.3699 30.9782 19.9315 30.9951 21.43 30.6428C22.7875 30.3379 24.0425 29.6857 25.0722 28.75C26.1439 27.7464 26.9217 26.4697 27.3222 25.0572C27.7573 23.5211 27.8348 21.9057 27.5486 20.335H19.1786V23.807H24.0259C23.9291 24.3608 23.7215 24.8893 23.4156 25.361C23.1097 25.8326 22.7117 26.2377 22.2456 26.552C21.6538 26.9437 20.9865 27.2072 20.2867 27.3255C19.5849 27.456 18.8651 27.456 18.1633 27.3255C17.4519 27.1786 16.779 26.885 16.1875 26.4634C15.2371 25.7907 14.5235 24.8349 14.1484 23.7325C13.7672 22.6094 13.7672 21.392 14.1484 20.2689C14.4154 19.4817 14.8567 18.765 15.4394 18.1722C16.1062 17.4814 16.9504 16.9876 17.8794 16.7449C18.8084 16.5023 19.7863 16.5203 20.7058 16.7969C21.4241 17.0173 22.0809 17.4025 22.6239 17.9219C23.1705 17.3781 23.7161 16.833 24.2608 16.2864C24.542 15.9925 24.8486 15.7127 25.1256 15.4117C24.2967 14.6404 23.3237 14.0402 22.2625 13.6455C20.3299 12.9437 18.2153 12.9249 16.2705 13.592Z" fill="white"/>
<path d="M16.2705 13.592C18.2151 12.9244 20.3297 12.9428 22.2625 13.6441C23.3239 14.0415 24.2964 14.6446 25.1242 15.4187C24.843 15.7197 24.5462 16.0009 24.2594 16.2934C23.7137 16.8381 23.1686 17.3809 22.6239 17.9219C22.0809 17.4025 21.4241 17.0173 20.7058 16.7969C19.7866 16.5193 18.8088 16.5003 17.8795 16.7419C16.9503 16.9836 16.1055 17.4765 15.438 18.1666C14.8553 18.7593 14.414 19.4761 14.147 20.2633L11.2319 18.0062C12.2753 15.937 14.082 14.3542 16.2705 13.592Z" fill="#E33629"/>
<path d="M10.4584 20.2422C10.615 19.4656 10.8751 18.7136 11.2319 18.0063L14.147 20.2689C13.7658 21.392 13.7658 22.6094 14.147 23.7325C13.1758 24.4825 12.2041 25.2363 11.2319 25.9938C10.3391 24.2167 10.0668 22.192 10.4584 20.2422Z" fill="#F8BD00"/>
<path d="M19.1786 20.3336H27.5486C27.8348 21.9043 27.7573 23.5197 27.3222 25.0558C26.9217 26.4683 26.1439 27.745 25.0722 28.7486C24.1314 28.0145 23.1864 27.2861 22.2456 26.552C22.7121 26.2374 23.1102 25.8319 23.4161 25.3597C23.722 24.8875 23.9294 24.3585 24.0259 23.8042H19.1786C19.1772 22.6483 19.1786 21.4909 19.1786 20.3336Z" fill="#587DBD"/>
<path d="M11.2305 25.9937C12.2027 25.2437 13.1744 24.49 14.1456 23.7325C14.5214 24.8353 15.236 25.7911 16.1875 26.4634C16.7809 26.883 17.4552 27.1742 18.1675 27.3184C18.8693 27.449 19.5891 27.449 20.2909 27.3184C20.9907 27.2002 21.658 26.9367 22.2498 26.545C23.1906 27.2791 24.1356 28.0075 25.0764 28.7416C24.0469 29.6777 22.7918 30.3305 21.4342 30.6358C19.9357 30.9881 18.3741 30.9712 16.8836 30.5866C15.7047 30.2718 14.6036 29.7169 13.6492 28.9567C12.6391 28.1546 11.8141 27.1439 11.2305 25.9937Z" fill="#319F43"/>
</g>
<path d="M37.784 26.614C37.336 26.614 36.894 26.58 36.458 26.512C36.026 26.448 35.618 26.354 35.234 26.23V24.88C35.618 25.012 36.04 25.114 36.5 25.186C36.964 25.254 37.396 25.288 37.796 25.288C38.464 25.288 38.952 25.184 39.26 24.976C39.568 24.764 39.722 24.452 39.722 24.04C39.722 23.812 39.672 23.622 39.572 23.47C39.476 23.318 39.318 23.19 39.098 23.086C38.878 22.978 38.574 22.88 38.186 22.792L37.556 22.648C36.696 22.46 36.062 22.162 35.654 21.754C35.25 21.346 35.048 20.806 35.048 20.134C35.048 19.298 35.358 18.652 35.978 18.196C36.602 17.736 37.518 17.506 38.726 17.506C39.13 17.506 39.52 17.532 39.896 17.584C40.276 17.632 40.622 17.7 40.934 17.788V19.132C40.618 19.036 40.272 18.962 39.896 18.91C39.524 18.858 39.154 18.832 38.786 18.832C38.058 18.832 37.528 18.938 37.196 19.15C36.864 19.362 36.698 19.666 36.698 20.062C36.698 20.282 36.74 20.466 36.824 20.614C36.912 20.762 37.054 20.888 37.25 20.992C37.45 21.096 37.724 21.188 38.072 21.268L38.702 21.406C39.638 21.61 40.316 21.916 40.736 22.324C41.16 22.732 41.372 23.272 41.372 23.944C41.372 24.5 41.23 24.978 40.946 25.378C40.662 25.778 40.25 26.084 39.71 26.296C39.174 26.508 38.532 26.614 37.784 26.614ZM43.8516 26.5V19.954H45.4836V26.5H43.8516ZM44.6676 18.838C44.3236 18.838 44.0656 18.764 43.8936 18.616C43.7256 18.468 43.6416 18.256 43.6416 17.98C43.6416 17.704 43.7256 17.492 43.8936 17.344C44.0656 17.196 44.3236 17.122 44.6676 17.122C45.0116 17.122 45.2676 17.196 45.4356 17.344C45.6076 17.492 45.6936 17.704 45.6936 17.98C45.6936 18.256 45.6076 18.468 45.4356 18.616C45.2676 18.764 45.0116 18.838 44.6676 18.838ZM50.7917 29.26C50.4077 29.26 50.0177 29.234 49.6217 29.182C49.2297 29.134 48.8537 29.06 48.4937 28.96V27.676C49.2657 27.896 49.9937 28.006 50.6777 28.006C51.1657 28.006 51.5597 27.946 51.8597 27.826C52.1597 27.71 52.3797 27.524 52.5197 27.268C52.6637 27.016 52.7357 26.68 52.7357 26.26V25.786H52.6577C52.4297 26.026 52.1537 26.212 51.8297 26.344C51.5097 26.476 51.1517 26.542 50.7557 26.542C50.2477 26.542 49.7897 26.428 49.3817 26.2C48.9737 25.968 48.6477 25.614 48.4037 25.138C48.1637 24.662 48.0437 24.07 48.0437 23.362C48.0437 22.222 48.3617 21.352 48.9977 20.752C49.6377 20.152 50.5797 19.852 51.8237 19.852C52.2557 19.852 52.6977 19.884 53.1497 19.948C53.6017 20.008 54.0077 20.094 54.3677 20.206V25.966C54.3677 26.734 54.2377 27.36 53.9777 27.844C53.7177 28.332 53.3257 28.69 52.8017 28.918C52.2777 29.146 51.6077 29.26 50.7917 29.26ZM51.3197 25.216C51.5877 25.216 51.8457 25.17 52.0937 25.078C52.3417 24.986 52.5557 24.848 52.7357 24.664V21.22C52.3997 21.14 52.0497 21.1 51.6857 21.1C51.0217 21.1 50.5217 21.274 50.1857 21.622C49.8497 21.966 49.6817 22.5 49.6817 23.224C49.6817 23.94 49.8237 24.452 50.1077 24.76C50.3957 25.064 50.7997 25.216 51.3197 25.216ZM57.2672 19.954H58.6112L58.7192 20.638H58.8032C59.0752 20.386 59.3932 20.192 59.7572 20.056C60.1212 19.92 60.5092 19.852 60.9212 19.852C61.6572 19.852 62.2352 20.064 62.6552 20.488C63.0792 20.908 63.2912 21.568 63.2912 22.468V26.5H61.6592V22.552C61.6592 22.084 61.5572 21.75 61.3532 21.55C61.1532 21.35 60.8572 21.25 60.4652 21.25C60.1732 21.25 59.8872 21.306 59.6072 21.418C59.3272 21.53 59.0912 21.698 58.8992 21.922V26.5H57.2672V19.954ZM70.5305 26.5V19.954H72.1625V26.5H70.5305ZM71.3465 18.838C71.0025 18.838 70.7445 18.764 70.5725 18.616C70.4045 18.468 70.3205 18.256 70.3205 17.98C70.3205 17.704 70.4045 17.492 70.5725 17.344C70.7445 17.196 71.0025 17.122 71.3465 17.122C71.6905 17.122 71.9465 17.196 72.1145 17.344C72.2865 17.492 72.3725 17.704 72.3725 17.98C72.3725 18.256 72.2865 18.468 72.1145 18.616C71.9465 18.764 71.6905 18.838 71.3465 18.838ZM75.0586 19.954H76.4026L76.5106 20.638H76.5946C76.8666 20.386 77.1846 20.192 77.5486 20.056C77.9126 19.92 78.3006 19.852 78.7126 19.852C79.4486 19.852 80.0266 20.064 80.4466 20.488C80.8706 20.908 81.0826 21.568 81.0826 22.468V26.5H79.4506V22.552C79.4506 22.084 79.3486 21.75 79.1446 21.55C78.9446 21.35 78.6486 21.25 78.2566 21.25C77.9646 21.25 77.6786 21.306 77.3986 21.418C77.1186 21.53 76.8826 21.698 76.6906 21.922V26.5H75.0586V19.954ZM96.8779 19.954H98.3839L96.4759 26.5H94.6279L93.1279 21.448L91.6099 26.5H89.7619L87.8359 19.954H89.4139L90.7759 24.832L92.2219 19.954H94.0699L95.4859 24.79L96.8779 19.954ZM100.807 26.5V19.954H102.439V26.5H100.807ZM101.623 18.838C101.279 18.838 101.021 18.764 100.849 18.616C100.681 18.468 100.597 18.256 100.597 17.98C100.597 17.704 100.681 17.492 100.849 17.344C101.021 17.196 101.279 17.122 101.623 17.122C101.967 17.122 102.223 17.196 102.391 17.344C102.563 17.492 102.649 17.704 102.649 17.98C102.649 18.256 102.563 18.468 102.391 18.616C102.223 18.764 101.967 18.838 101.623 18.838ZM108.689 25.288C108.905 25.288 109.165 25.256 109.469 25.192V26.482C109.069 26.574 108.665 26.62 108.257 26.62C106.621 26.62 105.803 25.822 105.803 24.226V21.25H104.615V19.954H105.803L106.091 17.62H107.435V19.954H109.409V21.25H107.435V23.944C107.435 24.432 107.535 24.778 107.735 24.982C107.935 25.186 108.253 25.288 108.689 25.288ZM111.762 16.804H113.394V20.626H113.472C113.736 20.374 114.038 20.182 114.378 20.05C114.722 19.918 115.092 19.852 115.488 19.852C116.192 19.852 116.75 20.064 117.162 20.488C117.578 20.908 117.786 21.564 117.786 22.456V26.5H116.154V22.546C116.154 22.078 116.052 21.746 115.848 21.55C115.644 21.35 115.348 21.25 114.96 21.25C114.668 21.25 114.382 21.308 114.102 21.424C113.822 21.54 113.586 21.708 113.394 21.928V26.5H111.762V16.804ZM132.237 22.18V26.392C131.449 26.524 130.683 26.59 129.939 26.59C128.215 26.59 126.923 26.218 126.063 25.474C125.207 24.726 124.777 23.596 124.773 22.084C124.769 20.572 125.205 19.432 126.081 18.664C126.961 17.892 128.221 17.506 129.861 17.506C130.585 17.506 131.289 17.588 131.973 17.752V19.12C131.321 18.96 130.659 18.88 129.987 18.88C128.819 18.884 127.947 19.142 127.371 19.654C126.795 20.166 126.507 20.982 126.507 22.102C126.511 23.162 126.787 23.948 127.335 24.46C127.883 24.972 128.717 25.228 129.837 25.228C130.097 25.228 130.377 25.218 130.677 25.198V22.18H132.237ZM138.124 26.62C137.456 26.62 136.878 26.494 136.39 26.242C135.906 25.99 135.53 25.612 135.262 25.108C134.998 24.6 134.866 23.976 134.866 23.236C134.866 22.124 135.15 21.282 135.718 20.71C136.29 20.138 137.092 19.852 138.124 19.852C139.16 19.852 139.962 20.136 140.53 20.704C141.098 21.272 141.382 22.114 141.382 23.23C141.382 23.97 141.248 24.594 140.98 25.102C140.716 25.606 140.34 25.986 139.852 26.242C139.364 26.494 138.788 26.62 138.124 26.62ZM138.124 25.36C138.656 25.36 139.06 25.194 139.336 24.862C139.612 24.53 139.75 23.99 139.75 23.242C139.75 22.482 139.612 21.938 139.336 21.61C139.06 21.278 138.656 21.112 138.124 21.112C137.592 21.112 137.188 21.276 136.912 21.604C136.64 21.932 136.504 22.472 136.504 23.224C136.504 23.98 136.64 24.526 136.912 24.862C137.188 25.194 137.592 25.36 138.124 25.36ZM146.964 26.62C146.296 26.62 145.718 26.494 145.23 26.242C144.746 25.99 144.37 25.612 144.102 25.108C143.838 24.6 143.706 23.976 143.706 23.236C143.706 22.124 143.99 21.282 144.558 20.71C145.13 20.138 145.932 19.852 146.964 19.852C148 19.852 148.802 20.136 149.37 20.704C149.938 21.272 150.222 22.114 150.222 23.23C150.222 23.97 150.088 24.594 149.82 25.102C149.556 25.606 149.18 25.986 148.692 26.242C148.204 26.494 147.628 26.62 146.964 26.62ZM146.964 25.36C147.496 25.36 147.9 25.194 148.176 24.862C148.452 24.53 148.59 23.99 148.59 23.242C148.59 22.482 148.452 21.938 148.176 21.61C147.9 21.278 147.496 21.112 146.964 21.112C146.432 21.112 146.028 21.276 145.752 21.604C145.48 21.932 145.344 22.472 145.344 23.224C145.344 23.98 145.48 24.526 145.752 24.862C146.028 25.194 146.432 25.36 146.964 25.36ZM155.295 29.26C154.911 29.26 154.521 29.234 154.125 29.182C153.733 29.134 153.357 29.06 152.997 28.96V27.676C153.769 27.896 154.497 28.006 155.181 28.006C155.669 28.006 156.063 27.946 156.363 27.826C156.663 27.71 156.883 27.524 157.023 27.268C157.167 27.016 157.239 26.68 157.239 26.26V25.786H157.161C156.933 26.026 156.657 26.212 156.333 26.344C156.013 26.476 155.655 26.542 155.259 26.542C154.751 26.542 154.293 26.428 153.885 26.2C153.477 25.968 153.151 25.614 152.907 25.138C152.667 24.662 152.547 24.07 152.547 23.362C152.547 22.222 152.865 21.352 153.501 20.752C154.141 20.152 155.083 19.852 156.327 19.852C156.759 19.852 157.201 19.884 157.653 19.948C158.105 20.008 158.511 20.094 158.871 20.206V25.966C158.871 26.734 158.741 27.36 158.481 27.844C158.221 28.332 157.829 28.69 157.305 28.918C156.781 29.146 156.111 29.26 155.295 29.26ZM155.823 25.216C156.091 25.216 156.349 25.17 156.597 25.078C156.845 24.986 157.059 24.848 157.239 24.664V21.22C156.903 21.14 156.553 21.1 156.189 21.1C155.525 21.1 155.025 21.274 154.689 21.622C154.353 21.966 154.185 22.5 154.185 23.224C154.185 23.94 154.327 24.452 154.611 24.76C154.899 25.064 155.303 25.216 155.823 25.216ZM161.77 26.5V16.804H163.402V26.5H161.77ZM171.95 23.704H167.588C167.608 24.12 167.694 24.452 167.846 24.7C168.002 24.944 168.24 25.122 168.56 25.234C168.88 25.346 169.304 25.402 169.832 25.402C170.356 25.402 170.938 25.326 171.578 25.174V26.38C170.914 26.54 170.254 26.62 169.598 26.62C168.362 26.62 167.446 26.348 166.85 25.804C166.258 25.26 165.962 24.404 165.962 23.236C165.962 22.512 166.082 21.898 166.322 21.394C166.566 20.886 166.918 20.502 167.378 20.242C167.838 19.982 168.394 19.852 169.046 19.852C169.99 19.852 170.71 20.146 171.206 20.734C171.702 21.318 171.95 22.168 171.95 23.284V23.704ZM169.022 20.896C168.558 20.896 168.206 21.044 167.966 21.34C167.726 21.632 167.598 22.102 167.582 22.75H170.426C170.41 22.102 170.286 21.632 170.054 21.34C169.822 21.044 169.478 20.896 169.022 20.896Z" fill="black"/>
<defs>
<clipPath id="clip0_163_64">
<rect width="18" height="18" fill="white" transform="translate(10 13)"/>
</clipPath>
</defs>
</svg>
