<svg width="26" height="25" viewBox="0 0 26 25" fill="none" xmlns="http://www.w3.org/2000/svg">
<path d="M25.1344 22.8657C25.2505 22.9818 25.3427 23.1197 25.4055 23.2714C25.4684 23.4231 25.5007 23.5858 25.5007 23.75C25.5007 23.9143 25.4684 24.0769 25.4055 24.2286C25.3427 24.3804 25.2505 24.5183 25.1344 24.6344C25.0183 24.7505 24.8804 24.8427 24.7286 24.9055C24.5769 24.9684 24.4143 25.0007 24.25 25.0007C24.0858 25.0007 23.9231 24.9684 23.7714 24.9055C23.6197 24.8427 23.4818 24.7505 23.3657 24.6344L13 14.2672L2.6344 24.6344C2.39985 24.869 2.08173 25.0007 1.75002 25.0007C1.41832 25.0007 1.1002 24.869 0.865649 24.6344C0.631098 24.3999 0.499329 24.0817 0.499329 23.75C0.499329 23.4183 0.631098 23.1002 0.865649 22.8657L11.2328 12.5L0.865649 2.1344C0.631098 1.89985 0.499329 1.58173 0.499329 1.25002C0.499329 0.918319 0.631098 0.6002 0.865649 0.365649C1.1002 0.131098 1.41832 -0.000671384 1.75002 -0.000671387C2.08173 -0.000671389 2.39985 0.131098 2.6344 0.365649L13 10.7328L23.3657 0.365649C23.6002 0.131098 23.9183 -0.000671393 24.25 -0.000671387C24.5817 -0.00067138 24.8999 0.131098 25.1344 0.365649C25.369 0.6002 25.5007 0.918319 25.5007 1.25002C25.5007 1.58173 25.369 1.89985 25.1344 2.1344L14.7672 12.5L25.1344 22.8657Z" fill="black"/>
</svg>
